<mxfile host="app.diagrams.net" modified="2024-05-28T18:36:23.695Z" agent="Mozilla/5.0 (X11; Ubuntu; Linux x86_64; rv:124.0) Gecko/20100101 Firefox/124.0" etag="cvk6BL-9YD4ZPQkueA-r" version="24.4.9" type="device">
  <diagram id="R2lEEEUBdFMjLlhIrx00" name="Page-1">
    <mxGraphModel dx="741" dy="933" grid="1" gridSize="10" guides="1" tooltips="1" connect="1" arrows="1" fold="1" page="1" pageScale="1" pageWidth="850" pageHeight="1100" math="0" shadow="0" extFonts="Permanent Marker^https://fonts.googleapis.com/css?family=Permanent+Marker">
      <root>
        <mxCell id="0" />
        <mxCell id="1" parent="0" />
        <mxCell id="O0EeKvBt-xyRI-109eGp-39" value="" style="rounded=0;orthogonalLoop=1;jettySize=auto;html=1;sketch=1;curveFitting=1;jiggle=2;strokeWidth=0.5;endArrow=none;endFill=0;" edge="1" parent="1" source="O0EeKvBt-xyRI-109eGp-1" target="O0EeKvBt-xyRI-109eGp-38">
          <mxGeometry relative="1" as="geometry" />
        </mxCell>
        <mxCell id="O0EeKvBt-xyRI-109eGp-1" value="Firewall" style="rounded=0;whiteSpace=wrap;html=1;sketch=1;curveFitting=1;jiggle=2;" vertex="1" parent="1">
          <mxGeometry x="80" y="80" width="120" height="40" as="geometry" />
        </mxCell>
        <mxCell id="O0EeKvBt-xyRI-109eGp-20" value="(1,1)" style="edgeStyle=orthogonalEdgeStyle;rounded=0;orthogonalLoop=1;jettySize=auto;html=1;exitX=0.5;exitY=0;exitDx=0;exitDy=0;entryX=0.5;entryY=1;entryDx=0;entryDy=0;startArrow=none;startFill=0;endArrow=none;endFill=0;sketch=1;curveFitting=1;jiggle=2;" edge="1" parent="1" source="O0EeKvBt-xyRI-109eGp-2" target="O0EeKvBt-xyRI-109eGp-13">
          <mxGeometry relative="1" as="geometry" />
        </mxCell>
        <mxCell id="O0EeKvBt-xyRI-109eGp-29" value="" style="edgeStyle=orthogonalEdgeStyle;rounded=0;orthogonalLoop=1;jettySize=auto;html=1;exitX=0.853;exitY=0.008;exitDx=0;exitDy=0;entryX=0;entryY=0.5;entryDx=0;entryDy=0;endArrow=none;endFill=0;sketch=1;curveFitting=1;jiggle=2;startArrow=none;startFill=0;exitPerimeter=0;" edge="1" parent="1" source="O0EeKvBt-xyRI-109eGp-2" target="O0EeKvBt-xyRI-109eGp-8">
          <mxGeometry relative="1" as="geometry" />
        </mxCell>
        <mxCell id="O0EeKvBt-xyRI-109eGp-64" value="(0,n)" style="edgeLabel;html=1;align=center;verticalAlign=middle;resizable=0;points=[];" vertex="1" connectable="0" parent="O0EeKvBt-xyRI-109eGp-29">
          <mxGeometry x="-0.8242" relative="1" as="geometry">
            <mxPoint x="-15" as="offset" />
          </mxGeometry>
        </mxCell>
        <mxCell id="O0EeKvBt-xyRI-109eGp-2" value="Guarda" style="rounded=0;whiteSpace=wrap;html=1;sketch=1;curveFitting=1;jiggle=2;" vertex="1" parent="1">
          <mxGeometry x="360" y="400" width="120" height="40" as="geometry" />
        </mxCell>
        <mxCell id="O0EeKvBt-xyRI-109eGp-18" value="(1,n)" style="edgeStyle=orthogonalEdgeStyle;rounded=0;orthogonalLoop=1;jettySize=auto;html=1;endArrow=none;endFill=0;sketch=1;curveFitting=1;jiggle=2;startArrow=none;startFill=0;" edge="1" parent="1" source="O0EeKvBt-xyRI-109eGp-3" target="O0EeKvBt-xyRI-109eGp-7">
          <mxGeometry relative="1" as="geometry" />
        </mxCell>
        <mxCell id="O0EeKvBt-xyRI-109eGp-3" value="Nivel" style="rounded=0;whiteSpace=wrap;html=1;sketch=1;curveFitting=1;jiggle=2;" vertex="1" parent="1">
          <mxGeometry x="80" y="400" width="120" height="40" as="geometry" />
        </mxCell>
        <mxCell id="O0EeKvBt-xyRI-109eGp-31" value="" style="edgeStyle=orthogonalEdgeStyle;rounded=0;orthogonalLoop=1;jettySize=auto;html=1;endArrow=none;endFill=0;sketch=1;curveFitting=1;jiggle=2;startArrow=none;startFill=0;" edge="1" parent="1" source="O0EeKvBt-xyRI-109eGp-4" target="O0EeKvBt-xyRI-109eGp-8">
          <mxGeometry relative="1" as="geometry" />
        </mxCell>
        <mxCell id="O0EeKvBt-xyRI-109eGp-4" value="Arsenal" style="rounded=0;whiteSpace=wrap;html=1;sketch=1;curveFitting=1;jiggle=2;" vertex="1" parent="1">
          <mxGeometry x="600" y="440" width="120" height="40" as="geometry" />
        </mxCell>
        <mxCell id="O0EeKvBt-xyRI-109eGp-5" value="Arma" style="rounded=0;whiteSpace=wrap;html=1;sketch=1;curveFitting=1;jiggle=2;" vertex="1" parent="1">
          <mxGeometry x="600" y="240" width="120" height="40" as="geometry" />
        </mxCell>
        <mxCell id="O0EeKvBt-xyRI-109eGp-16" value="(1,n)" style="edgeStyle=orthogonalEdgeStyle;rounded=0;orthogonalLoop=1;jettySize=auto;html=1;endArrow=none;endFill=0;sketch=1;curveFitting=1;jiggle=2;startArrow=none;startFill=0;" edge="1" parent="1" source="O0EeKvBt-xyRI-109eGp-6" target="O0EeKvBt-xyRI-109eGp-9">
          <mxGeometry relative="1" as="geometry" />
        </mxCell>
        <mxCell id="O0EeKvBt-xyRI-109eGp-6" value="CentroDeControl" style="rounded=0;whiteSpace=wrap;html=1;sketch=1;curveFitting=1;jiggle=2;" vertex="1" parent="1">
          <mxGeometry x="80" y="240" width="120" height="40" as="geometry" />
        </mxCell>
        <mxCell id="O0EeKvBt-xyRI-109eGp-19" value="(0,m)" style="edgeStyle=orthogonalEdgeStyle;rounded=0;orthogonalLoop=1;jettySize=auto;html=1;endArrow=none;endFill=0;sketch=1;curveFitting=1;jiggle=2;startArrow=none;startFill=0;" edge="1" parent="1" source="O0EeKvBt-xyRI-109eGp-7" target="O0EeKvBt-xyRI-109eGp-2">
          <mxGeometry relative="1" as="geometry" />
        </mxCell>
        <mxCell id="O0EeKvBt-xyRI-109eGp-7" value="protege" style="rhombus;whiteSpace=wrap;html=1;sketch=1;curveFitting=1;jiggle=2;" vertex="1" parent="1">
          <mxGeometry x="240" y="400" width="80" height="40" as="geometry" />
        </mxCell>
        <mxCell id="O0EeKvBt-xyRI-109eGp-30" value="" style="edgeStyle=orthogonalEdgeStyle;rounded=0;orthogonalLoop=1;jettySize=auto;html=1;endArrow=none;endFill=0;sketch=1;curveFitting=1;jiggle=2;startArrow=none;startFill=0;" edge="1" parent="1" source="O0EeKvBt-xyRI-109eGp-8" target="O0EeKvBt-xyRI-109eGp-5">
          <mxGeometry relative="1" as="geometry" />
        </mxCell>
        <mxCell id="O0EeKvBt-xyRI-109eGp-8" value="arma" style="rhombus;whiteSpace=wrap;html=1;sketch=1;curveFitting=1;jiggle=2;" vertex="1" parent="1">
          <mxGeometry x="620" y="320" width="80" height="40" as="geometry" />
        </mxCell>
        <mxCell id="O0EeKvBt-xyRI-109eGp-17" value="(1,1)" style="edgeStyle=orthogonalEdgeStyle;rounded=0;orthogonalLoop=1;jettySize=auto;html=1;endArrow=none;endFill=0;sketch=1;curveFitting=1;jiggle=2;startArrow=none;startFill=0;" edge="1" parent="1" source="O0EeKvBt-xyRI-109eGp-9" target="O0EeKvBt-xyRI-109eGp-3">
          <mxGeometry relative="1" as="geometry" />
        </mxCell>
        <mxCell id="O0EeKvBt-xyRI-109eGp-9" value="contiene" style="rhombus;whiteSpace=wrap;html=1;sketch=1;curveFitting=1;jiggle=2;" vertex="1" parent="1">
          <mxGeometry x="100" y="320" width="80" height="40" as="geometry" />
        </mxCell>
        <mxCell id="O0EeKvBt-xyRI-109eGp-32" value="(0,1)" style="edgeStyle=orthogonalEdgeStyle;rounded=0;orthogonalLoop=1;jettySize=auto;html=1;exitX=0.5;exitY=0;exitDx=0;exitDy=0;entryX=1;entryY=0.5;entryDx=0;entryDy=0;endArrow=none;endFill=0;sketch=1;curveFitting=1;jiggle=2;startArrow=none;startFill=0;" edge="1" parent="1" source="O0EeKvBt-xyRI-109eGp-10" target="O0EeKvBt-xyRI-109eGp-2">
          <mxGeometry relative="1" as="geometry" />
        </mxCell>
        <mxCell id="O0EeKvBt-xyRI-109eGp-33" value="(0,n)" style="edgeStyle=orthogonalEdgeStyle;rounded=0;orthogonalLoop=1;jettySize=auto;html=1;exitX=0;exitY=0.5;exitDx=0;exitDy=0;entryX=0.5;entryY=1;entryDx=0;entryDy=0;endArrow=none;endFill=0;sketch=1;curveFitting=1;jiggle=2;startArrow=none;startFill=0;" edge="1" parent="1" source="O0EeKvBt-xyRI-109eGp-10" target="O0EeKvBt-xyRI-109eGp-2">
          <mxGeometry relative="1" as="geometry" />
        </mxCell>
        <mxCell id="O0EeKvBt-xyRI-109eGp-10" value="lidera" style="rhombus;whiteSpace=wrap;html=1;sketch=1;curveFitting=1;jiggle=2;" vertex="1" parent="1">
          <mxGeometry x="480" y="440" width="80" height="40" as="geometry" />
        </mxCell>
        <mxCell id="O0EeKvBt-xyRI-109eGp-14" value="(1,1)" style="edgeStyle=orthogonalEdgeStyle;rounded=0;orthogonalLoop=1;jettySize=auto;html=1;endArrow=none;endFill=0;sketch=1;curveFitting=1;jiggle=2;startArrow=none;startFill=0;" edge="1" parent="1" source="O0EeKvBt-xyRI-109eGp-11" target="O0EeKvBt-xyRI-109eGp-1">
          <mxGeometry relative="1" as="geometry" />
        </mxCell>
        <mxCell id="O0EeKvBt-xyRI-109eGp-15" value="(0,n)" style="edgeStyle=orthogonalEdgeStyle;rounded=0;orthogonalLoop=1;jettySize=auto;html=1;endArrow=none;endFill=0;sketch=1;curveFitting=1;jiggle=2;startArrow=none;startFill=0;" edge="1" parent="1" source="O0EeKvBt-xyRI-109eGp-11" target="O0EeKvBt-xyRI-109eGp-6">
          <mxGeometry relative="1" as="geometry" />
        </mxCell>
        <mxCell id="O0EeKvBt-xyRI-109eGp-11" value="tiene" style="rhombus;whiteSpace=wrap;html=1;sketch=1;curveFitting=1;jiggle=2;" vertex="1" parent="1">
          <mxGeometry x="100" y="160" width="80" height="40" as="geometry" />
        </mxCell>
        <mxCell id="O0EeKvBt-xyRI-109eGp-21" value="(0,1)" style="edgeStyle=orthogonalEdgeStyle;rounded=0;orthogonalLoop=1;jettySize=auto;html=1;exitX=0;exitY=0.5;exitDx=0;exitDy=0;endArrow=none;endFill=0;sketch=1;curveFitting=1;jiggle=2;startArrow=none;startFill=0;" edge="1" parent="1" source="O0EeKvBt-xyRI-109eGp-13" target="O0EeKvBt-xyRI-109eGp-6">
          <mxGeometry relative="1" as="geometry" />
        </mxCell>
        <mxCell id="O0EeKvBt-xyRI-109eGp-13" value="controla" style="rhombus;whiteSpace=wrap;html=1;sketch=1;curveFitting=1;jiggle=2;" vertex="1" parent="1">
          <mxGeometry x="380" y="240" width="80" height="40" as="geometry" />
        </mxCell>
        <mxCell id="O0EeKvBt-xyRI-109eGp-40" value="" style="rounded=0;orthogonalLoop=1;jettySize=auto;html=1;sketch=1;curveFitting=1;jiggle=2;strokeWidth=0.5;endArrow=none;endFill=0;" edge="1" parent="1" source="O0EeKvBt-xyRI-109eGp-37" target="O0EeKvBt-xyRI-109eGp-1">
          <mxGeometry relative="1" as="geometry" />
        </mxCell>
        <mxCell id="O0EeKvBt-xyRI-109eGp-37" value="nombre" style="ellipse;whiteSpace=wrap;html=1;sketch=1;curveFitting=1;jiggle=2;fontStyle=4" vertex="1" parent="1">
          <mxGeometry x="240" y="40" width="80" height="30" as="geometry" />
        </mxCell>
        <mxCell id="O0EeKvBt-xyRI-109eGp-38" value="versión" style="ellipse;whiteSpace=wrap;html=1;sketch=1;curveFitting=1;jiggle=2;" vertex="1" parent="1">
          <mxGeometry x="240" y="80" width="80" height="30" as="geometry" />
        </mxCell>
        <mxCell id="O0EeKvBt-xyRI-109eGp-41" value="" style="rounded=0;orthogonalLoop=1;jettySize=auto;html=1;sketch=1;curveFitting=1;jiggle=2;strokeWidth=0.5;endArrow=none;endFill=0;" edge="1" parent="1" source="O0EeKvBt-xyRI-109eGp-42" target="O0EeKvBt-xyRI-109eGp-2">
          <mxGeometry relative="1" as="geometry">
            <mxPoint x="305" y="581" as="targetPoint" />
          </mxGeometry>
        </mxCell>
        <mxCell id="O0EeKvBt-xyRI-109eGp-42" value="cod_guarda" style="ellipse;whiteSpace=wrap;html=1;sketch=1;curveFitting=1;jiggle=2;fontStyle=4" vertex="1" parent="1">
          <mxGeometry x="330" y="460" width="80" height="30" as="geometry" />
        </mxCell>
        <mxCell id="O0EeKvBt-xyRI-109eGp-43" value="" style="rounded=0;orthogonalLoop=1;jettySize=auto;html=1;sketch=1;curveFitting=1;jiggle=2;strokeWidth=0.5;endArrow=none;endFill=0;" edge="1" parent="1" source="O0EeKvBt-xyRI-109eGp-44" target="O0EeKvBt-xyRI-109eGp-3">
          <mxGeometry relative="1" as="geometry">
            <mxPoint x="129.56521739130437" y="390" as="targetPoint" />
          </mxGeometry>
        </mxCell>
        <mxCell id="O0EeKvBt-xyRI-109eGp-44" value="cod_nivel" style="ellipse;whiteSpace=wrap;html=1;sketch=1;curveFitting=1;jiggle=2;fontStyle=4" vertex="1" parent="1">
          <mxGeometry x="180" y="460" width="80" height="30" as="geometry" />
        </mxCell>
        <mxCell id="O0EeKvBt-xyRI-109eGp-45" value="" style="rounded=0;orthogonalLoop=1;jettySize=auto;html=1;sketch=1;curveFitting=1;jiggle=2;strokeWidth=0.5;endArrow=none;endFill=0;" edge="1" parent="1" source="O0EeKvBt-xyRI-109eGp-46" target="O0EeKvBt-xyRI-109eGp-6">
          <mxGeometry relative="1" as="geometry">
            <mxPoint x="220" y="331" as="targetPoint" />
          </mxGeometry>
        </mxCell>
        <mxCell id="O0EeKvBt-xyRI-109eGp-46" value="nombre" style="ellipse;whiteSpace=wrap;html=1;sketch=1;curveFitting=1;jiggle=2;fontStyle=4" vertex="1" parent="1">
          <mxGeometry x="210" y="290" width="80" height="30" as="geometry" />
        </mxCell>
        <mxCell id="O0EeKvBt-xyRI-109eGp-47" value="" style="edgeStyle=orthogonalEdgeStyle;rounded=0;orthogonalLoop=1;jettySize=auto;html=1;endArrow=none;endFill=0;sketch=1;curveFitting=1;jiggle=2;startArrow=none;startFill=0;exitX=0.5;exitY=1;exitDx=0;exitDy=0;entryX=0;entryY=0.5;entryDx=0;entryDy=0;" edge="1" parent="1" target="O0EeKvBt-xyRI-109eGp-49" source="O0EeKvBt-xyRI-109eGp-3">
          <mxGeometry relative="1" as="geometry">
            <mxPoint x="310" y="570" as="sourcePoint" />
          </mxGeometry>
        </mxCell>
        <mxCell id="O0EeKvBt-xyRI-109eGp-48" value="" style="edgeStyle=orthogonalEdgeStyle;rounded=0;orthogonalLoop=1;jettySize=auto;html=1;endArrow=none;endFill=0;sketch=1;curveFitting=1;jiggle=2;startArrow=none;startFill=0;entryX=0.5;entryY=1;entryDx=0;entryDy=0;" edge="1" parent="1" source="O0EeKvBt-xyRI-109eGp-49" target="O0EeKvBt-xyRI-109eGp-4">
          <mxGeometry relative="1" as="geometry">
            <mxPoint x="470" y="570" as="targetPoint" />
          </mxGeometry>
        </mxCell>
        <mxCell id="O0EeKvBt-xyRI-109eGp-49" value="incluye" style="rhombus;whiteSpace=wrap;html=1;sketch=1;curveFitting=1;jiggle=2;" vertex="1" parent="1">
          <mxGeometry x="380" y="520" width="80" height="40" as="geometry" />
        </mxCell>
        <mxCell id="O0EeKvBt-xyRI-109eGp-50" value="" style="rounded=0;orthogonalLoop=1;jettySize=auto;html=1;sketch=1;curveFitting=1;jiggle=2;strokeWidth=0.5;endArrow=none;endFill=0;entryX=0.5;entryY=0;entryDx=0;entryDy=0;" edge="1" parent="1" source="O0EeKvBt-xyRI-109eGp-51" target="O0EeKvBt-xyRI-109eGp-5">
          <mxGeometry relative="1" as="geometry">
            <mxPoint x="640" y="201" as="targetPoint" />
          </mxGeometry>
        </mxCell>
        <mxCell id="O0EeKvBt-xyRI-109eGp-51" value="tipo" style="ellipse;whiteSpace=wrap;html=1;sketch=1;curveFitting=1;jiggle=2;fontStyle=4" vertex="1" parent="1">
          <mxGeometry x="620" y="170" width="80" height="30" as="geometry" />
        </mxCell>
        <mxCell id="O0EeKvBt-xyRI-109eGp-52" value="" style="rounded=0;orthogonalLoop=1;jettySize=auto;html=1;sketch=1;curveFitting=1;jiggle=2;strokeWidth=0.5;endArrow=none;endFill=0;" edge="1" parent="1" source="O0EeKvBt-xyRI-109eGp-53" target="O0EeKvBt-xyRI-109eGp-4">
          <mxGeometry relative="1" as="geometry">
            <mxPoint x="510" y="411" as="targetPoint" />
          </mxGeometry>
        </mxCell>
        <mxCell id="O0EeKvBt-xyRI-109eGp-53" value="nombre" style="ellipse;whiteSpace=wrap;html=1;sketch=1;curveFitting=1;jiggle=2;fontStyle=4" vertex="1" parent="1">
          <mxGeometry x="700" y="510" width="80" height="30" as="geometry" />
        </mxCell>
        <mxCell id="O0EeKvBt-xyRI-109eGp-54" value="" style="rounded=0;orthogonalLoop=1;jettySize=auto;html=1;sketch=1;curveFitting=1;jiggle=2;strokeWidth=0.5;endArrow=none;endFill=0;" edge="1" parent="1" target="O0EeKvBt-xyRI-109eGp-57" source="O0EeKvBt-xyRI-109eGp-8">
          <mxGeometry relative="1" as="geometry">
            <mxPoint x="700" y="308" as="sourcePoint" />
          </mxGeometry>
        </mxCell>
        <mxCell id="O0EeKvBt-xyRI-109eGp-55" value="" style="rounded=0;orthogonalLoop=1;jettySize=auto;html=1;sketch=1;curveFitting=1;jiggle=2;strokeWidth=0.5;endArrow=none;endFill=0;" edge="1" parent="1" source="O0EeKvBt-xyRI-109eGp-56" target="O0EeKvBt-xyRI-109eGp-8">
          <mxGeometry relative="1" as="geometry">
            <mxPoint x="700" y="291" as="targetPoint" />
          </mxGeometry>
        </mxCell>
        <mxCell id="O0EeKvBt-xyRI-109eGp-56" value="fecha_retirada" style="ellipse;whiteSpace=wrap;html=1;sketch=1;curveFitting=1;jiggle=2;fontStyle=0" vertex="1" parent="1">
          <mxGeometry x="740" y="260" width="110" height="30" as="geometry" />
        </mxCell>
        <mxCell id="O0EeKvBt-xyRI-109eGp-57" value="hora_retirada" style="ellipse;whiteSpace=wrap;html=1;sketch=1;curveFitting=1;jiggle=2;" vertex="1" parent="1">
          <mxGeometry x="740" y="300" width="110" height="30" as="geometry" />
        </mxCell>
        <mxCell id="O0EeKvBt-xyRI-109eGp-58" value="" style="rounded=0;orthogonalLoop=1;jettySize=auto;html=1;sketch=1;curveFitting=1;jiggle=2;strokeWidth=0.5;endArrow=none;endFill=0;" edge="1" parent="1" target="O0EeKvBt-xyRI-109eGp-61" source="O0EeKvBt-xyRI-109eGp-8">
          <mxGeometry relative="1" as="geometry">
            <mxPoint x="700" y="388" as="sourcePoint" />
          </mxGeometry>
        </mxCell>
        <mxCell id="O0EeKvBt-xyRI-109eGp-59" value="" style="rounded=0;orthogonalLoop=1;jettySize=auto;html=1;sketch=1;curveFitting=1;jiggle=2;strokeWidth=0.5;endArrow=none;endFill=0;" edge="1" parent="1" source="O0EeKvBt-xyRI-109eGp-60" target="O0EeKvBt-xyRI-109eGp-8">
          <mxGeometry relative="1" as="geometry">
            <mxPoint x="700" y="371" as="targetPoint" />
          </mxGeometry>
        </mxCell>
        <mxCell id="O0EeKvBt-xyRI-109eGp-60" value="fecha_devolución" style="ellipse;whiteSpace=wrap;html=1;sketch=1;curveFitting=1;jiggle=2;fontStyle=0" vertex="1" parent="1">
          <mxGeometry x="740" y="340" width="110" height="30" as="geometry" />
        </mxCell>
        <mxCell id="O0EeKvBt-xyRI-109eGp-61" value="hora_devolución" style="ellipse;whiteSpace=wrap;html=1;sketch=1;curveFitting=1;jiggle=2;" vertex="1" parent="1">
          <mxGeometry x="740" y="380" width="110" height="30" as="geometry" />
        </mxCell>
        <mxCell id="O0EeKvBt-xyRI-109eGp-65" value="(0,m)" style="edgeLabel;html=1;align=center;verticalAlign=middle;resizable=0;points=[];" vertex="1" connectable="0" parent="1">
          <mxGeometry x="476.3780058128623" y="381.1533417909691" as="geometry" />
        </mxCell>
        <mxCell id="O0EeKvBt-xyRI-109eGp-66" value="(0,n)" style="edgeLabel;html=1;align=center;verticalAlign=middle;resizable=0;points=[];" vertex="1" connectable="0" parent="1">
          <mxGeometry x="645.4980058128623" y="430.0033417909691" as="geometry" />
        </mxCell>
        <mxCell id="O0EeKvBt-xyRI-109eGp-67" value="(0,m)" style="edgeLabel;html=1;align=center;verticalAlign=middle;resizable=0;points=[];" vertex="1" connectable="0" parent="1">
          <mxGeometry x="674.4980058128623" y="430.0033417909691" as="geometry" />
        </mxCell>
        <mxCell id="O0EeKvBt-xyRI-109eGp-68" value="(0,m)" style="edgeLabel;html=1;align=center;verticalAlign=middle;resizable=0;points=[];" vertex="1" connectable="0" parent="1">
          <mxGeometry x="645.4980058128623" y="290.0033417909691" as="geometry" />
        </mxCell>
        <mxCell id="O0EeKvBt-xyRI-109eGp-69" value="(0,n)" style="edgeLabel;html=1;align=center;verticalAlign=middle;resizable=0;points=[];" vertex="1" connectable="0" parent="1">
          <mxGeometry x="674.4980058128623" y="290.0033417909691" as="geometry" />
        </mxCell>
      </root>
    </mxGraphModel>
  </diagram>
</mxfile>
